<?xml version="1.0" encoding="UTF-8" standalone="no"?>
<!-- Created with Inkscape (http://www.inkscape.org/) -->

<svg
   width="58.747322mm"
   height="174.09375mm"
   viewBox="0 0 58.747322 174.09375"
   version="1.1"
   id="svg5"
   inkscape:version="1.2.2 (732a01da63, 2022-12-09)"
   sodipodi:docname="npracing.svg"
   inkscape:export-filename="rebrand grafika 3.png"
   inkscape:export-xdpi="300"
   inkscape:export-ydpi="300"
   xml:space="preserve"
   xmlns:inkscape="http://www.inkscape.org/namespaces/inkscape"
   xmlns:sodipodi="http://sodipodi.sourceforge.net/DTD/sodipodi-0.dtd"
   xmlns="http://www.w3.org/2000/svg"
   xmlns:svg="http://www.w3.org/2000/svg"><sodipodi:namedview
     id="namedview7"
     pagecolor="#ffffff"
     bordercolor="#000000"
     borderopacity="0.25"
     inkscape:showpageshadow="2"
     inkscape:pageopacity="0.0"
     inkscape:pagecheckerboard="0"
     inkscape:deskcolor="#d1d1d1"
     inkscape:document-units="mm"
     showgrid="false"
     inkscape:zoom="0.1767767"
     inkscape:cx="370.52395"
     inkscape:cy="461.03362"
     inkscape:window-width="2560"
     inkscape:window-height="1351"
     inkscape:window-x="-9"
     inkscape:window-y="-9"
     inkscape:window-maximized="1"
     inkscape:current-layer="layer1" /><defs
     id="defs2" /><g
     inkscape:label="Layer 1"
     inkscape:groupmode="layer"
     id="layer1"
     transform="translate(-75.536478,-61.453097)"><path
       d="m 81.469957,115.55729 c -2.072636,2.80527 -4.033616,5.27663 -5.753654,7.34735 h 58.567487 c -1.72004,-2.07072 -3.68101,-4.54208 -5.75365,-7.34735 z"
       style="fill:#ffcc00;fill-opacity:1;fill-rule:evenodd;stroke:none;stroke-width:0.816375;stroke-opacity:1"
       id="path4614"
       inkscape:export-filename="loading 25%.svg"
       inkscape:export-xdpi="300"
       inkscape:export-ydpi="300" /><path
       d="m 90.644076,101.67803 c -1.336301,2.28217 -2.69715,4.46553 -4.0535,6.5319 h 36.819464 c -1.35634,-2.06635 -2.71719,-4.24976 -4.0535,-6.5319 z"
       style="fill:#ffcc00;fill-opacity:1;fill-rule:evenodd;stroke:none;stroke-width:0.816375;stroke-opacity:1"
       id="path4591"
       inkscape:export-filename="loading_75%.svg"
       inkscape:export-xdpi="300"
       inkscape:export-ydpi="300" /><path
       d="M 98.06894,86.983321 C 96.9997,89.50414 95.85345,91.9582 94.65365,94.330677 h 10.34666 10.34665 c -1.19983,-2.372477 -2.34599,-4.826537 -3.41529,-7.347356 h -6.93136 z"
       style="fill:#ffcc00;fill-opacity:1;fill-rule:evenodd;stroke:none;stroke-width:0.816375;stroke-opacity:1"
       id="path4568" /><path
       d="m 104.99953,61.453097 c -0.67474,6.255442 -2.15003,12.356711 -4.12739,18.182869 h 4.12791 z m 5.2e-4,18.182869 h 4.12791 c -1.97748,-5.826158 -3.45317,-11.927427 -4.12791,-18.182869 z"
       style="fill:#ffcc00;fill-opacity:1;fill-rule:evenodd;stroke:none;stroke-width:0.816375;stroke-opacity:1"
       id="path4535" /><path
       d="m 128.35031,181.44267 c 2.07263,-2.80528 4.03361,-5.27663 5.75365,-7.34736 H 75.536475 c 1.72004,2.07072 3.68101,4.54208 5.75365,7.34736 z"
       style="display:inline;fill:#ffcc00;fill-opacity:1;fill-rule:evenodd;stroke:none;stroke-width:0.816375;stroke-opacity:1"
       id="path4614-1" /><path
       d="m 119.17619,195.32192 c 1.3363,-2.28216 2.69715,-4.46553 4.0535,-6.5319 H 86.410225 c 1.35634,2.06635 2.71719,4.24976 4.0535,6.5319 z"
       style="display:inline;fill:#ffcc00;fill-opacity:1;fill-rule:evenodd;stroke:none;stroke-width:0.816375;stroke-opacity:1"
       id="path4591-7" /><path
       d="m 111.75132,210.01663 c 1.06924,-2.52082 2.21549,-4.97488 3.41529,-7.34735 H 104.81995 94.473305 c 1.19983,2.37248 2.34599,4.82654 3.41529,7.34735 h 6.931355 z"
       style="display:inline;fill:#ffcc00;fill-opacity:1;fill-rule:evenodd;stroke:none;stroke-width:0.816375;stroke-opacity:1"
       id="path4568-5" /><path
       d="m 104.82073,235.54686 c 0.67474,-6.25544 2.15003,-12.35671 4.12739,-18.18287 h -4.12791 z m -5.2e-4,-18.18287 h -4.12791 c 1.97748,5.82616 3.45317,11.92743 4.12791,18.18287 z"
       style="display:inline;fill:#ffcc00;fill-opacity:1;fill-rule:evenodd;stroke:none;stroke-width:0.816375;stroke-opacity:1"
       id="path4535-7" /></g></svg>
