<?xml version="1.0" encoding="UTF-8" standalone="no"?>
<!-- Created with Inkscape (http://www.inkscape.org/) -->

<svg
   width="58.266159mm"
   height="21.060638mm"
   viewBox="0 0 58.266159 21.060638"
   version="1.1"
   id="svg5"
   xml:space="preserve"
   xmlns="http://www.w3.org/2000/svg"
   xmlns:svg="http://www.w3.org/2000/svg"><defs
     id="defs2" /><g
     id="layer1"
     transform="translate(-226.86663,-145.28817)"><g
       id="layer1-6"
       transform="translate(126.86662,15.037383)"><path
         id="path492"
         style="color:#000000;fill:#ffffff;fill-opacity:1;stroke-linejoin:round;-inkscape-stroke:none"
         d="m 111.60859,130.25083 c -0.96683,0.005 -1.91905,0.53479 -2.3828,1.51567 L 101.76888,147.53246 100,151.27435 h 5.85287 l 0.69867,-1.47846 h 5.2e-4 l 5.77949,-12.22045 11.88247,12.88242 c 1.27166,1.38021 3.53608,1.03468 4.33824,-0.66197 l 6.74016,-14.25185 h 16.1463 l -2.44895,5.17747 h -8.20725 l -2.50217,5.29115 h 12.38477 c 1.02253,-1.7e-4 1.95344,-0.58946 2.39107,-1.51361 l 4.95267,-10.46861 c 0.83036,-1.75547 -0.45016,-3.77762 -2.3921,-3.77755 h -21.99814 c -1.02309,-4.3e-4 -1.95475,0.58896 -2.39262,1.51361 l -5.7795,12.22096 -11.88247,-12.88294 c -0.53648,-0.58227 -1.24991,-0.85758 -1.95544,-0.85369 z" /></g></g></svg>
