<?xml version="1.0" encoding="UTF-8" standalone="no"?>
<!-- Created with Inkscape (http://www.inkscape.org/) -->

<svg
   width="119.4327mm"
   height="31.273647mm"
   viewBox="0 0 119.4327 31.273647"
   version="1.1"
   id="svg5"
   inkscape:version="1.2.2 (732a01da63, 2022-12-09)"
   sodipodi:docname="npracing.svg"
   inkscape:export-filename="rebrand grafika 3.png"
   inkscape:export-xdpi="300"
   inkscape:export-ydpi="300"
   xml:space="preserve"
   xmlns:inkscape="http://www.inkscape.org/namespaces/inkscape"
   xmlns:sodipodi="http://sodipodi.sourceforge.net/DTD/sodipodi-0.dtd"
   xmlns="http://www.w3.org/2000/svg"
   xmlns:svg="http://www.w3.org/2000/svg"><sodipodi:namedview
     id="namedview7"
     pagecolor="#ffffff"
     bordercolor="#000000"
     borderopacity="0.25"
     inkscape:showpageshadow="2"
     inkscape:pageopacity="0.0"
     inkscape:pagecheckerboard="0"
     inkscape:deskcolor="#d1d1d1"
     inkscape:document-units="mm"
     showgrid="false"
     inkscape:zoom="0.1767767"
     inkscape:cx="370.52395"
     inkscape:cy="461.03362"
     inkscape:window-width="2560"
     inkscape:window-height="1351"
     inkscape:window-x="-9"
     inkscape:window-y="-9"
     inkscape:window-maximized="1"
     inkscape:current-layer="layer1" /><defs
     id="defs2" /><g
     inkscape:label="Layer 1"
     inkscape:groupmode="layer"
     id="layer1"
     transform="translate(128.24332,-35.956874)"><path
       id="path8383"
       style="fill:#ffffff;fill-opacity:1;stroke-width:0.264583"
       class="st0"
       d="m -124.38052,35.956978 c -2.14313,0 -3.86281,1.746048 -3.86281,3.889169 v 23.495206 c 0,2.143121 1.74606,3.889169 3.88916,3.889169 h 21.08709 V 35.956978 Z m 9.10177,3.810104 c 1.29646,0 8.14886,10.397724 7.4874,16.77417 -0.34396,3.518951 -1.77282,5.291875 -3.41323,6.164998 0.26458,-0.423333 0.47626,-0.926251 0.66146,-1.53479 1.93144,-6.085405 -3.88896,-13.202295 -4.73563,-13.202295 -0.89958,0 -6.7205,7.169807 -4.73615,13.202295 0.21167,0.608539 0.42323,1.111354 0.68782,1.561145 -1.69334,-0.873123 -3.17511,-2.619486 -3.67782,-6.191353 -0.87311,-6.376446 6.35032,-16.77417 7.72615,-16.77417 z m 0.185,14.207918 c 0.52917,0 3.20135,3.572085 3.20135,6.29729 0,1.243541 -0.44988,2.116564 -1.03197,2.672188 -0.68791,0.661458 -1.56084,0.899687 -2.16938,0.899687 -0.58208,0 -1.48147,-0.238229 -2.16938,-0.899687 -0.58209,-0.555624 -1.03197,-1.428647 -1.03197,-2.672188 0,-2.725205 2.61927,-6.29729 3.20135,-6.29729 z" /><g
       id="g8423"
       style="fill:#ffffff"
       transform="matrix(0.26458333,0,0,0.26458333,-129.03729,34.819165)">
		<path
   class="st1"
   d="m 145,18.3 h 9.6 c 7.7,0 11.9,5 11.9,10.9 0,6 -4.2,10.9 -11.9,10.9 h -3.8 V 52.2 H 145 Z m 9.4,16.9 c 4.2,0 6,-3 6,-6 0,-3.2 -1.8,-6 -6,-6 h -3.6 v 12 z"
   id="path8387"
   style="fill:#ffffff;fill-opacity:1" />
		<path
   class="st1"
   d="m 172.3,19.6 c 3.6,-1.1 7.2,-1.9 10.7,-1.9 7.4,0 11.3,5.3 11.3,11 0,3.3 -1.8,8.1 -6.9,9.9 l 6.5,13.6 h -6.3 l -5.9,-12.8 h -3.6 v 12.8 h -5.8 z m 10.2,15.1 c 3.8,0 5.8,-2.6 5.8,-6.1 0,-3.3 -1.5,-6.1 -5.2,-6.1 -1.7,0 -3.3,0.2 -5,0.7 v 11.5 z"
   id="path8389"
   style="fill:#ffffff;fill-opacity:1" />
		<path
   class="st1"
   d="m 205.6,23.4 c 0.8,-3.3 3.2,-5.8 6.8,-5.8 3.6,0 6,2.6 6.8,5.8 l 7.6,28.7 H 221 L 218.7,43 h -12.4 l -2.3,9.1 h -5.8 z M 217.5,38.2 214,24.1 c -0.2,-0.9 -0.7,-1.5 -1.5,-1.5 -0.9,0 -1.3,0.6 -1.5,1.5 l -3.5,14.1 z"
   id="path8391"
   style="fill:#ffffff;fill-opacity:1" />
		<path
   class="st1"
   d="m 230.9,47.7 15.2,-24.5 h -14.7 v -4.9 h 21.4 v 4.5 l -15.2,24.5 h 16 v 4.9 h -22.7 z m 6.8,-39.2 4.6,2.6 4.6,-2.6 2.3,3.4 -6.9,3.8 -6.9,-3.8 z"
   id="path8393"
   style="fill:#ffffff;fill-opacity:1" />
		<path
   class="st1"
   d="m 259.1,46.1 c 3.1,1 5.7,1.7 8.7,1.7 3.9,0 5.5,-2 5.5,-4.8 0,-7.2 -14.7,-4.8 -14.7,-16.1 0,-5.9 4.8,-9.3 11.3,-9.3 3.1,0 5.3,0.7 8.4,1.8 l -1.5,4.6 c -2.6,-0.9 -4.4,-1.5 -6.9,-1.5 -3.4,0 -5.2,1.7 -5.2,4.4 0,6.3 14.7,4.8 14.7,16.1 0,5.9 -4.6,9.7 -11.6,9.7 -3.6,0 -6.2,-0.8 -9.7,-1.9 z"
   id="path8395"
   style="fill:#ffffff;fill-opacity:1" />
		<path
   class="st1"
   d="m 285.5,18.3 h 5.8 v 14.2 l 3.5,-0.2 6.4,-14 h 6.4 l -7,14.5 c 2,0.8 3.2,2.4 3.9,4.6 l 5,14.8 h -6.1 L 298.9,39 c -0.4,-1.1 -1.1,-2 -2.6,-1.9 l -4.9,0.3 V 51 c 0,0.7 -0.4,1.2 -1.2,1.2 h -4.6 z"
   id="path8397"
   style="fill:#ffffff;fill-opacity:1" />
		<path
   class="st1"
   d="m 320,23.4 c 0.8,-3.3 3.2,-5.8 6.8,-5.8 3.6,0 6,2.6 6.8,5.8 l 7.6,28.7 h -5.8 L 333,43 h -12.4 l -2.3,9.1 h -5.8 z m 1,-11.2 10,-3.7 1.5,4.2 -10.2,3 z m 10.9,26 -3.5,-14.1 c -0.2,-0.9 -0.7,-1.5 -1.5,-1.5 -0.9,0 -1.3,0.6 -1.5,1.5 l -3.5,14.1 z"
   id="path8399"
   style="fill:#ffffff;fill-opacity:1" />
		<path
   class="st2"
   d="m 145,76.5 h 9.6 c 7.7,0 11.9,5 11.9,10.9 0,6 -4.2,10.9 -11.9,10.9 h -3.8 v 12.1 H 145 Z m 9.4,16.9 c 4.2,0 6,-3 6,-6 0,-3.2 -1.8,-6 -6,-6 h -3.6 v 12 z"
   id="path8401"
   style="fill:#ffffff;fill-opacity:1" />
		<path
   class="st2"
   d="m 172.3,76.5 h 5.8 v 29 H 193 v 3.7 c 0,0.7 -0.4,1.2 -1.2,1.2 h -19.5 z"
   id="path8403"
   style="fill:#ffffff;fill-opacity:1" />
		<path
   class="st2"
   d="m 202.5,96.7 c -4.5,-1 -6.5,-4.4 -7.4,-8.9 l -2.3,-11.3 h 5.8 l 2.1,10.5 c 0.6,3.1 1.6,5.2 4.7,5.2 3.1,0 4,-2.2 4.7,-5.3 l 2.1,-10.4 h 5.8 l -2.3,11.3 c -0.9,4.5 -2.9,8 -7.4,8.9 v 13.7 h -5.7 V 96.7 Z"
   id="path8405"
   style="fill:#ffffff;fill-opacity:1" />
		<path
   class="st2"
   d="m 223.6,76.5 h 5.3 l 13.4,23.4 C 242.1,97.6 242,95.2 242,93.5 v -17 h 5.7 v 33.9 h -5.3 L 229,87 c 0.2,2.3 0.3,4.7 0.3,6.4 v 17 h -5.7 z"
   id="path8407"
   style="fill:#ffffff;fill-opacity:1" />
		<path
   class="st2"
   d="m 260.9,81.6 c 0.8,-3.2 3.2,-5.8 6.8,-5.8 3.6,0 6,2.6 6.8,5.8 l 7.6,28.7 h -5.8 l -2.3,-9.1 h -12.4 l -2.3,9.1 h -5.8 z m 1,-11.2 10,-3.7 1.5,4.2 -10.2,3 z m 10.9,26 -3.5,-14.1 c -0.2,-0.9 -0.7,-1.5 -1.5,-1.5 -0.9,0 -1.3,0.6 -1.5,1.5 l -3.5,14.1 z"
   id="path8409"
   style="fill:#ffffff;fill-opacity:1" />
		<path
   class="st2"
   d="m 287.8,77.8 c 3.6,-1.1 7.2,-1.9 10.7,-1.9 7.4,0 11.3,5.3 11.3,11 0,3.2 -1.8,8.1 -6.9,9.9 l 6.5,13.6 h -6.3 l -5.9,-12.8 h -3.6 v 12.8 h -5.8 z M 298,92.9 c 3.8,0 5.8,-2.6 5.8,-6.1 0,-3.3 -1.5,-6.1 -5.2,-6.1 -1.6,0 -3.3,0.2 -4.9,0.7 v 11.5 z"
   id="path8411"
   style="fill:#ffffff;fill-opacity:1" />
		<path
   class="st2"
   d="m 315,85.5 c 0,-5.4 3.4,-9 10.3,-9 h 9.2 v 4.9 h -9.1 c -3.5,0 -4.6,1.6 -4.6,4.5 v 4.7 H 333 v 4.9 h -12.2 v 5.6 c 0,3 1.1,4.5 4.6,4.5 h 9.3 v 3.7 c 0,0.7 -0.4,1.2 -1.2,1.2 h -8.2 c -6.8,0 -10.3,-3.6 -10.3,-9 z"
   id="path8413"
   style="fill:#ffffff;fill-opacity:1" />
		<path
   class="st2"
   d="m 341.2,76.5 h 5.3 l 13.4,23.4 c -0.2,-2.3 -0.3,-4.7 -0.3,-6.4 v -17 h 5.7 v 33.9 H 360 L 346.6,87 c 0.2,2.3 0.3,4.7 0.3,6.4 v 17 h -5.7 z"
   id="path8415"
   style="fill:#ffffff;fill-opacity:1" />
		<path
   class="st2"
   d="m 372.3,104.3 c 3.1,1 5.7,1.7 8.7,1.7 3.9,0 5.5,-2 5.5,-4.8 0,-7.2 -14.7,-4.8 -14.7,-16.1 0,-5.9 4.8,-9.3 11.3,-9.3 3.1,0 5.3,0.7 8.4,1.8 l -1.5,4.6 c -2.6,-0.9 -4.4,-1.5 -6.9,-1.5 -3.4,0 -5.2,1.7 -5.2,4.4 0,6.3 14.7,4.8 14.7,16.1 0,5.9 -4.6,9.7 -11.6,9.7 -3.6,0 -6.2,-0.8 -9.7,-1.9 z"
   id="path8417"
   style="fill:#ffffff;fill-opacity:1" />
		<path
   class="st2"
   d="m 398.8,76.5 h 5.8 v 14.2 l 3.5,-0.2 6.4,-14 h 6.4 l -7,14.5 c 2,0.8 3.2,2.4 3.9,4.6 l 5,14.8 h -6.1 l -4.5,-13.2 c -0.4,-1.1 -1.1,-2 -2.6,-1.9 l -4.9,0.3 v 13.6 c 0,0.7 -0.4,1.2 -1.2,1.2 h -4.6 z"
   id="path8419"
   style="fill:#ffffff;fill-opacity:1" />
		<path
   class="st2"
   d="m 433.2,81.6 c 0.8,-3.2 3.2,-5.8 6.8,-5.8 3.6,0 6,2.6 6.8,5.8 l 7.6,28.7 h -5.8 l -2.3,-9.1 h -12.4 l -2.3,9.1 h -5.8 z m 1.1,-11.2 10,-3.7 1.5,4.2 -10.2,3 z m 10.8,26 -3.5,-14.1 c -0.2,-0.9 -0.7,-1.5 -1.5,-1.5 -0.9,0 -1.3,0.6 -1.5,1.5 L 435,96.4 Z"
   id="path8421"
   style="fill:#ffffff;fill-opacity:1" />
	</g><rect
       x="-101.75875"
       y="35.956875"
       class="st3"
       width="4.8683333"
       height="31.247292"
       id="rect8432"
       style="fill:#ffffff;stroke-width:0.264583" /></g><style
     type="text/css"
     id="style8374">
	.st0{fill:url(#SVGID_1_);}
	.st1{fill:#FDB73B;}
	.st2{fill:#005793;}
	.st3{fill:url(#SVGID_2_);}
	.st4{fill:url(#SVGID_3_);}
	.st5{fill:url(#SVGID_4_);}
</style></svg>
